<mxfile host="app.diagrams.net" modified="2021-05-13T09:56:43.277Z" agent="5.0 (Windows NT 10.0; Win64; x64) AppleWebKit/537.36 (KHTML, like Gecko) Chrome/90.0.4430.212 Safari/537.36" etag="cTNbZsWLOMTHMADiN3Ag" version="14.6.12" type="github">
  <diagram id="Qrw8q82N-ZrjvOQnY0xB" name="Page-1">
    <mxGraphModel dx="1185" dy="1804" grid="1" gridSize="10" guides="1" tooltips="1" connect="1" arrows="1" fold="1" page="1" pageScale="1" pageWidth="827" pageHeight="1169" math="0" shadow="0">
      <root>
        <mxCell id="0" />
        <mxCell id="1" parent="0" />
        <mxCell id="-vgeeg1nEVwritXvs4zs-1" value="" style="rounded=0;whiteSpace=wrap;html=1;" vertex="1" parent="1">
          <mxGeometry x="334" y="510" width="180" height="200" as="geometry" />
        </mxCell>
        <mxCell id="-vgeeg1nEVwritXvs4zs-2" value="MAC" style="rounded=1;whiteSpace=wrap;html=1;" vertex="1" parent="1">
          <mxGeometry x="371" y="668" width="109" height="20" as="geometry" />
        </mxCell>
        <mxCell id="-vgeeg1nEVwritXvs4zs-7" style="edgeStyle=orthogonalEdgeStyle;rounded=0;orthogonalLoop=1;jettySize=auto;html=1;" edge="1" parent="1" source="-vgeeg1nEVwritXvs4zs-6">
          <mxGeometry relative="1" as="geometry">
            <mxPoint x="290" y="740" as="targetPoint" />
            <Array as="points">
              <mxPoint x="390" y="728" />
              <mxPoint x="290" y="728" />
            </Array>
          </mxGeometry>
        </mxCell>
        <mxCell id="-vgeeg1nEVwritXvs4zs-15" style="edgeStyle=orthogonalEdgeStyle;rounded=0;orthogonalLoop=1;jettySize=auto;html=1;" edge="1" parent="1" source="-vgeeg1nEVwritXvs4zs-6">
          <mxGeometry relative="1" as="geometry">
            <mxPoint x="600" y="740" as="targetPoint" />
            <Array as="points">
              <mxPoint x="460" y="720" />
              <mxPoint x="600" y="720" />
            </Array>
          </mxGeometry>
        </mxCell>
        <mxCell id="-vgeeg1nEVwritXvs4zs-16" style="edgeStyle=orthogonalEdgeStyle;rounded=0;orthogonalLoop=1;jettySize=auto;html=1;entryX=0.375;entryY=0.042;entryDx=0;entryDy=0;entryPerimeter=0;" edge="1" parent="1" source="-vgeeg1nEVwritXvs4zs-6">
          <mxGeometry relative="1" as="geometry">
            <mxPoint x="490" y="741.6800000000001" as="targetPoint" />
            <Array as="points">
              <mxPoint x="426" y="728" />
              <mxPoint x="490" y="728" />
            </Array>
          </mxGeometry>
        </mxCell>
        <mxCell id="-vgeeg1nEVwritXvs4zs-6" value="PHY" style="rounded=1;whiteSpace=wrap;html=1;" vertex="1" parent="1">
          <mxGeometry x="371" y="688" width="109" height="20" as="geometry" />
        </mxCell>
        <mxCell id="-vgeeg1nEVwritXvs4zs-17" value="" style="aspect=fixed;pointerEvents=1;shadow=0;dashed=0;html=1;strokeColor=none;labelPosition=center;verticalLabelPosition=bottom;verticalAlign=top;align=center;fillColor=#00188D;shape=mxgraph.azure.computer" vertex="1" parent="1">
          <mxGeometry x="464" y="860" width="50" height="45" as="geometry" />
        </mxCell>
        <mxCell id="-vgeeg1nEVwritXvs4zs-20" value="" style="aspect=fixed;pointerEvents=1;shadow=0;dashed=0;html=1;strokeColor=none;labelPosition=center;verticalLabelPosition=bottom;verticalAlign=top;align=center;fillColor=#00188D;shape=mxgraph.azure.computer" vertex="1" parent="1">
          <mxGeometry x="575" y="860" width="50" height="45" as="geometry" />
        </mxCell>
        <mxCell id="-vgeeg1nEVwritXvs4zs-37" value="" style="edgeStyle=orthogonalEdgeStyle;rounded=0;orthogonalLoop=1;jettySize=auto;html=1;" edge="1" parent="1" source="-vgeeg1nEVwritXvs4zs-28" target="-vgeeg1nEVwritXvs4zs-29">
          <mxGeometry relative="1" as="geometry" />
        </mxCell>
        <mxCell id="-vgeeg1nEVwritXvs4zs-28" value="WAN" style="pointerEvents=1;shadow=0;dashed=0;html=1;strokeColor=#b85450;fillColor=#f8cecc;aspect=fixed;labelPosition=center;verticalLabelPosition=bottom;verticalAlign=top;align=center;outlineConnect=0;shape=mxgraph.vvd.ethernet_port;" vertex="1" parent="1">
          <mxGeometry x="265.1" y="740" width="50" height="50" as="geometry" />
        </mxCell>
        <mxCell id="-vgeeg1nEVwritXvs4zs-29" value="ISP" style="points=[];aspect=fixed;html=1;align=center;shadow=0;dashed=0;image;image=img/lib/allied_telesis/switch/Industrial_Ethernet_IE200_POE.svg;" vertex="1" parent="1">
          <mxGeometry x="270" y="848.6" width="40.2" height="56.4" as="geometry" />
        </mxCell>
        <mxCell id="-vgeeg1nEVwritXvs4zs-35" value="" style="edgeStyle=orthogonalEdgeStyle;rounded=0;orthogonalLoop=1;jettySize=auto;html=1;" edge="1" parent="1" target="-vgeeg1nEVwritXvs4zs-17">
          <mxGeometry relative="1" as="geometry">
            <mxPoint x="489" y="790" as="sourcePoint" />
          </mxGeometry>
        </mxCell>
        <mxCell id="-vgeeg1nEVwritXvs4zs-36" value="" style="edgeStyle=orthogonalEdgeStyle;rounded=0;orthogonalLoop=1;jettySize=auto;html=1;" edge="1" parent="1" source="-vgeeg1nEVwritXvs4zs-33" target="-vgeeg1nEVwritXvs4zs-20">
          <mxGeometry relative="1" as="geometry" />
        </mxCell>
        <mxCell id="-vgeeg1nEVwritXvs4zs-33" value="LAN" style="pointerEvents=1;shadow=0;dashed=0;html=1;strokeColor=none;fillColor=#434445;aspect=fixed;labelPosition=center;verticalLabelPosition=bottom;verticalAlign=top;align=center;outlineConnect=0;shape=mxgraph.vvd.ethernet_port;" vertex="1" parent="1">
          <mxGeometry x="575" y="740" width="50" height="50" as="geometry" />
        </mxCell>
        <mxCell id="-vgeeg1nEVwritXvs4zs-38" value="LAN" style="pointerEvents=1;shadow=0;dashed=0;html=1;strokeColor=none;fillColor=#434445;aspect=fixed;labelPosition=center;verticalLabelPosition=bottom;verticalAlign=top;align=center;outlineConnect=0;shape=mxgraph.vvd.ethernet_port;" vertex="1" parent="1">
          <mxGeometry x="464" y="740" width="50" height="50" as="geometry" />
        </mxCell>
        <mxCell id="-vgeeg1nEVwritXvs4zs-44" style="edgeStyle=orthogonalEdgeStyle;rounded=0;orthogonalLoop=1;jettySize=auto;html=1;entryX=0.75;entryY=0;entryDx=0;entryDy=0;" edge="1" parent="1" source="-vgeeg1nEVwritXvs4zs-40" target="-vgeeg1nEVwritXvs4zs-2">
          <mxGeometry relative="1" as="geometry">
            <mxPoint x="542" y="650" as="targetPoint" />
            <Array as="points">
              <mxPoint x="542" y="650" />
              <mxPoint x="453" y="650" />
            </Array>
          </mxGeometry>
        </mxCell>
        <mxCell id="-vgeeg1nEVwritXvs4zs-46" value="" style="edgeStyle=orthogonalEdgeStyle;rounded=0;orthogonalLoop=1;jettySize=auto;html=1;entryX=1;entryY=0.5;entryDx=0;entryDy=0;entryPerimeter=0;" edge="1" parent="1" source="-vgeeg1nEVwritXvs4zs-40" target="-vgeeg1nEVwritXvs4zs-42">
          <mxGeometry relative="1" as="geometry">
            <Array as="points">
              <mxPoint x="490" y="545" />
              <mxPoint x="490" y="570" />
            </Array>
          </mxGeometry>
        </mxCell>
        <mxCell id="-vgeeg1nEVwritXvs4zs-40" value="eth0" style="pointerEvents=1;shadow=0;dashed=0;html=1;strokeColor=none;fillColor=#4495D1;labelPosition=center;verticalLabelPosition=bottom;verticalAlign=top;align=center;outlineConnect=0;shape=mxgraph.veeam.2d.network_card;sketch=0;direction=east;" vertex="1" parent="1">
          <mxGeometry x="500" y="530" width="60" height="30" as="geometry" />
        </mxCell>
        <mxCell id="-vgeeg1nEVwritXvs4zs-43" style="edgeStyle=orthogonalEdgeStyle;rounded=0;orthogonalLoop=1;jettySize=auto;html=1;entryX=0.25;entryY=0;entryDx=0;entryDy=0;" edge="1" parent="1" source="-vgeeg1nEVwritXvs4zs-41" target="-vgeeg1nEVwritXvs4zs-2">
          <mxGeometry relative="1" as="geometry">
            <mxPoint x="260" y="660" as="targetPoint" />
            <Array as="points">
              <mxPoint x="260" y="545" />
              <mxPoint x="260" y="650" />
              <mxPoint x="398" y="650" />
            </Array>
          </mxGeometry>
        </mxCell>
        <mxCell id="-vgeeg1nEVwritXvs4zs-45" value="" style="edgeStyle=orthogonalEdgeStyle;rounded=0;orthogonalLoop=1;jettySize=auto;html=1;" edge="1" parent="1" source="-vgeeg1nEVwritXvs4zs-41" target="-vgeeg1nEVwritXvs4zs-42">
          <mxGeometry relative="1" as="geometry" />
        </mxCell>
        <mxCell id="-vgeeg1nEVwritXvs4zs-41" value="eth1" style="pointerEvents=1;shadow=0;dashed=0;html=1;strokeColor=none;fillColor=#4495D1;labelPosition=center;verticalLabelPosition=bottom;verticalAlign=top;align=center;outlineConnect=0;shape=mxgraph.veeam.2d.network_card;sketch=0;direction=west;" vertex="1" parent="1">
          <mxGeometry x="293.2" y="530" width="42.8" height="30" as="geometry" />
        </mxCell>
        <mxCell id="-vgeeg1nEVwritXvs4zs-42" value="" style="rounded=0;whiteSpace=wrap;html=1;shadow=0;sketch=0;strokeColor=#000000;fillColor=#ffffff;gradientColor=none;" vertex="1" parent="1">
          <mxGeometry x="360" y="530" width="120" height="100" as="geometry" />
        </mxCell>
        <mxCell id="-vgeeg1nEVwritXvs4zs-59" style="edgeStyle=orthogonalEdgeStyle;rounded=0;orthogonalLoop=1;jettySize=auto;html=1;entryX=0.188;entryY=0.018;entryDx=0;entryDy=0;entryPerimeter=0;" edge="1" parent="1" source="-vgeeg1nEVwritXvs4zs-47" target="-vgeeg1nEVwritXvs4zs-42">
          <mxGeometry relative="1" as="geometry">
            <Array as="points">
              <mxPoint x="375" y="500" />
              <mxPoint x="390" y="500" />
              <mxPoint x="390" y="532" />
            </Array>
          </mxGeometry>
        </mxCell>
        <mxCell id="-vgeeg1nEVwritXvs4zs-47" value="master" style="pointerEvents=1;shadow=0;dashed=0;html=1;strokeColor=none;fillColor=#434445;aspect=fixed;labelPosition=center;verticalLabelPosition=bottom;verticalAlign=top;align=center;outlineConnect=0;shape=mxgraph.vvd.wi_fi;sketch=0;rotation=-90;" vertex="1" parent="1">
          <mxGeometry x="350" y="437" width="50" height="50" as="geometry" />
        </mxCell>
        <mxCell id="-vgeeg1nEVwritXvs4zs-60" style="edgeStyle=orthogonalEdgeStyle;rounded=0;orthogonalLoop=1;jettySize=auto;html=1;entryX=0.75;entryY=0;entryDx=0;entryDy=0;" edge="1" parent="1" source="-vgeeg1nEVwritXvs4zs-48" target="-vgeeg1nEVwritXvs4zs-42">
          <mxGeometry relative="1" as="geometry">
            <Array as="points">
              <mxPoint x="475" y="500" />
              <mxPoint x="450" y="500" />
            </Array>
          </mxGeometry>
        </mxCell>
        <mxCell id="-vgeeg1nEVwritXvs4zs-48" value="guest" style="pointerEvents=1;shadow=0;dashed=0;html=1;strokeColor=none;fillColor=#434445;aspect=fixed;labelPosition=center;verticalLabelPosition=bottom;verticalAlign=top;align=center;outlineConnect=0;shape=mxgraph.vvd.wi_fi;sketch=0;rotation=-75;direction=south;" vertex="1" parent="1">
          <mxGeometry x="450" y="437" width="50" height="50" as="geometry" />
        </mxCell>
        <mxCell id="-vgeeg1nEVwritXvs4zs-51" value="" style="edgeStyle=orthogonalEdgeStyle;rounded=0;orthogonalLoop=1;jettySize=auto;html=1;" edge="1" parent="1" source="-vgeeg1nEVwritXvs4zs-50" target="-vgeeg1nEVwritXvs4zs-47">
          <mxGeometry relative="1" as="geometry" />
        </mxCell>
        <mxCell id="-vgeeg1nEVwritXvs4zs-50" value="" style="aspect=fixed;pointerEvents=1;shadow=0;dashed=0;html=1;strokeColor=none;labelPosition=center;verticalLabelPosition=bottom;verticalAlign=top;align=center;fillColor=#00188D;shape=mxgraph.mscae.enterprise.android_phone;sketch=0;" vertex="1" parent="1">
          <mxGeometry x="265.1" y="350" width="30" height="50" as="geometry" />
        </mxCell>
        <mxCell id="-vgeeg1nEVwritXvs4zs-55" value="" style="edgeStyle=orthogonalEdgeStyle;rounded=0;orthogonalLoop=1;jettySize=auto;html=1;" edge="1" parent="1" source="-vgeeg1nEVwritXvs4zs-52" target="-vgeeg1nEVwritXvs4zs-48">
          <mxGeometry relative="1" as="geometry" />
        </mxCell>
        <mxCell id="-vgeeg1nEVwritXvs4zs-52" value="" style="aspect=fixed;pointerEvents=1;shadow=0;dashed=0;html=1;strokeColor=none;labelPosition=center;verticalLabelPosition=bottom;verticalAlign=top;align=center;fillColor=#00188D;shape=mxgraph.mscae.enterprise.android_phone;sketch=0;" vertex="1" parent="1">
          <mxGeometry x="460" y="327" width="30" height="50" as="geometry" />
        </mxCell>
        <mxCell id="-vgeeg1nEVwritXvs4zs-57" style="edgeStyle=orthogonalEdgeStyle;rounded=0;orthogonalLoop=1;jettySize=auto;html=1;" edge="1" parent="1" source="-vgeeg1nEVwritXvs4zs-56">
          <mxGeometry relative="1" as="geometry">
            <mxPoint x="510" y="440" as="targetPoint" />
            <Array as="points">
              <mxPoint x="575" y="400" />
              <mxPoint x="510" y="400" />
            </Array>
          </mxGeometry>
        </mxCell>
        <mxCell id="-vgeeg1nEVwritXvs4zs-56" value="" style="aspect=fixed;pointerEvents=1;shadow=0;dashed=0;html=1;strokeColor=none;labelPosition=center;verticalLabelPosition=bottom;verticalAlign=top;align=center;fillColor=#00188D;shape=mxgraph.mscae.enterprise.android_phone;sketch=0;" vertex="1" parent="1">
          <mxGeometry x="560" y="327" width="30" height="50" as="geometry" />
        </mxCell>
        <mxCell id="-vgeeg1nEVwritXvs4zs-63" value="br-lan" style="endArrow=none;dashed=1;html=1;entryX=1;entryY=0.5;entryDx=0;entryDy=0;exitX=0.167;exitY=0;exitDx=0;exitDy=0;exitPerimeter=0;" edge="1" parent="1" source="-vgeeg1nEVwritXvs4zs-42" target="-vgeeg1nEVwritXvs4zs-42">
          <mxGeometry width="50" height="50" relative="1" as="geometry">
            <mxPoint x="371" y="530" as="sourcePoint" />
            <mxPoint x="449" y="592" as="targetPoint" />
            <Array as="points">
              <mxPoint x="400" y="560" />
              <mxPoint x="420" y="570" />
              <mxPoint x="450" y="580" />
            </Array>
          </mxGeometry>
        </mxCell>
        <mxCell id="-vgeeg1nEVwritXvs4zs-64" value="CPU" style="text;html=1;strokeColor=none;fillColor=none;align=center;verticalAlign=middle;whiteSpace=wrap;rounded=0;shadow=0;sketch=0;" vertex="1" parent="1">
          <mxGeometry x="404" y="600" width="40" height="20" as="geometry" />
        </mxCell>
        <mxCell id="-vgeeg1nEVwritXvs4zs-67" value="" style="curved=1;endArrow=classic;html=1;fillColor=#e51400;strokeColor=#B20000;shadow=0;" edge="1" parent="1">
          <mxGeometry width="50" height="50" relative="1" as="geometry">
            <mxPoint x="490" y="930" as="sourcePoint" />
            <mxPoint x="460" y="390" as="targetPoint" />
            <Array as="points">
              <mxPoint x="500" y="760" />
              <mxPoint x="450" y="790" />
            </Array>
          </mxGeometry>
        </mxCell>
        <mxCell id="-vgeeg1nEVwritXvs4zs-79" value="" style="curved=1;endArrow=classic;html=1;shadow=0;" edge="1" parent="1">
          <mxGeometry width="50" height="50" relative="1" as="geometry">
            <mxPoint x="50" y="-160" as="sourcePoint" />
            <mxPoint x="240" y="-200" as="targetPoint" />
            <Array as="points">
              <mxPoint x="190" y="-30" />
              <mxPoint x="140" y="-80" />
            </Array>
          </mxGeometry>
        </mxCell>
      </root>
    </mxGraphModel>
  </diagram>
</mxfile>
